<mxfile host="app.diagrams.net" modified="2024-06-11T14:57:58.163Z" agent="Mozilla/5.0 (Windows NT 10.0; Win64; x64) AppleWebKit/537.36 (KHTML, like Gecko) Chrome/125.0.0.0 Safari/537.36 Edg/125.0.0.0" etag="XLb_Bg9zlNPQwHJBktMB" version="24.5.3" type="device">
  <diagram id="3j9G0F825_cHGCq9AKto" name="Page-2">
    <mxGraphModel dx="3325" dy="311" grid="1" gridSize="10" guides="1" tooltips="1" connect="1" arrows="1" fold="1" page="1" pageScale="1" pageWidth="827" pageHeight="1169" math="0" shadow="0">
      <root>
        <mxCell id="0" />
        <mxCell id="1" parent="0" />
        <mxCell id="xWcjb8qhsKGaQlNw6-6s-64" value="&lt;font style=&quot;font-size: 18px;&quot;&gt;&lt;b&gt;Staff Home&lt;/b&gt;&lt;/font&gt;" style="text;html=1;align=center;verticalAlign=middle;whiteSpace=wrap;rounded=0;" parent="1" vertex="1">
          <mxGeometry x="370" y="2090" width="176" height="30" as="geometry" />
        </mxCell>
        <mxCell id="xWcjb8qhsKGaQlNw6-6s-65" value="" style="rounded=0;whiteSpace=wrap;html=1;" parent="1" vertex="1">
          <mxGeometry x="-171" y="2160" width="1250" height="860" as="geometry" />
        </mxCell>
        <mxCell id="xWcjb8qhsKGaQlNw6-6s-66" value="" style="rounded=0;whiteSpace=wrap;html=1;fillColor=#f5f5f5;fontColor=#333333;strokeColor=#666666;rotation=-270;" parent="1" vertex="1">
          <mxGeometry x="-490.93" y="2484.69" width="857.5" height="213.13" as="geometry" />
        </mxCell>
        <mxCell id="xWcjb8qhsKGaQlNw6-6s-67" value="&lt;font size=&quot;3&quot;&gt;&lt;b&gt;LOGO&lt;/b&gt;&lt;/font&gt;" style="rhombus;whiteSpace=wrap;html=1;fillColor=#dae8fc;strokeColor=#6c8ebf;" parent="1" vertex="1">
          <mxGeometry x="-160" y="2170" width="80" height="80" as="geometry" />
        </mxCell>
        <mxCell id="xWcjb8qhsKGaQlNw6-6s-68" value="&lt;b&gt;Logout&lt;/b&gt;" style="rounded=0;whiteSpace=wrap;html=1;fillColor=#dae8fc;strokeColor=#6c8ebf;" parent="1" vertex="1">
          <mxGeometry x="909" y="2190" width="90" height="40" as="geometry" />
        </mxCell>
        <mxCell id="xWcjb8qhsKGaQlNw6-6s-69" value="" style="rounded=0;whiteSpace=wrap;html=1;fillColor=#f5f5f5;fontColor=#f5f5f5;strokeColor=#666666;" parent="1" vertex="1">
          <mxGeometry x="-170" y="2920" width="1249" height="100" as="geometry" />
        </mxCell>
        <mxCell id="xWcjb8qhsKGaQlNw6-6s-70" value="&lt;font style=&quot;font-size: 14px;&quot;&gt;Footer Information&lt;/font&gt;" style="text;html=1;align=center;verticalAlign=middle;whiteSpace=wrap;rounded=0;" parent="1" vertex="1">
          <mxGeometry x="383" y="2955" width="126" height="30" as="geometry" />
        </mxCell>
        <mxCell id="xWcjb8qhsKGaQlNw6-6s-71" value="" style="rounded=0;whiteSpace=wrap;html=1;" parent="1" vertex="1">
          <mxGeometry x="70" y="2340" width="380" height="230" as="geometry" />
        </mxCell>
        <mxCell id="xWcjb8qhsKGaQlNw6-6s-72" value="&lt;b&gt;&lt;font style=&quot;font-size: 18px;&quot;&gt;Welcome Message&lt;/font&gt;&lt;/b&gt;" style="text;html=1;align=center;verticalAlign=middle;whiteSpace=wrap;rounded=0;" parent="1" vertex="1">
          <mxGeometry x="70" y="2180" width="230" height="30" as="geometry" />
        </mxCell>
        <mxCell id="xWcjb8qhsKGaQlNw6-6s-73" value="Current user information" style="text;html=1;align=center;verticalAlign=middle;whiteSpace=wrap;rounded=0;" parent="1" vertex="1">
          <mxGeometry x="90" y="2220" width="160" height="30" as="geometry" />
        </mxCell>
        <mxCell id="xWcjb8qhsKGaQlNw6-6s-74" value="" style="rounded=0;whiteSpace=wrap;html=1;" parent="1" vertex="1">
          <mxGeometry x="70" y="2640" width="380" height="230" as="geometry" />
        </mxCell>
        <mxCell id="xWcjb8qhsKGaQlNw6-6s-75" value="" style="rounded=0;whiteSpace=wrap;html=1;" parent="1" vertex="1">
          <mxGeometry x="590" y="2340" width="380" height="230" as="geometry" />
        </mxCell>
        <mxCell id="xWcjb8qhsKGaQlNw6-6s-77" value="&lt;font style=&quot;font-size: 14px;&quot;&gt;Menu Options&lt;/font&gt;" style="text;html=1;align=center;verticalAlign=middle;whiteSpace=wrap;rounded=0;" parent="1" vertex="1">
          <mxGeometry x="-150" y="2330" width="110" height="30" as="geometry" />
        </mxCell>
        <mxCell id="xWcjb8qhsKGaQlNw6-6s-78" value="&lt;font style=&quot;font-size: 14px;&quot;&gt;Dashboard&lt;/font&gt;" style="text;html=1;align=center;verticalAlign=middle;whiteSpace=wrap;rounded=0;" parent="1" vertex="1">
          <mxGeometry x="-165" y="2400" width="110" height="30" as="geometry" />
        </mxCell>
        <mxCell id="xWcjb8qhsKGaQlNw6-6s-79" value="&lt;font style=&quot;font-size: 14px;&quot;&gt;Transactions&lt;/font&gt;" style="text;html=1;align=center;verticalAlign=middle;whiteSpace=wrap;rounded=0;" parent="1" vertex="1">
          <mxGeometry x="-160" y="2440" width="110" height="30" as="geometry" />
        </mxCell>
        <mxCell id="xWcjb8qhsKGaQlNw6-6s-80" value="&lt;font style=&quot;font-size: 14px;&quot;&gt;Manage Accounts&lt;/font&gt;" style="text;html=1;align=center;verticalAlign=middle;whiteSpace=wrap;rounded=0;" parent="1" vertex="1">
          <mxGeometry x="-160" y="2484.69" width="140" height="30" as="geometry" />
        </mxCell>
        <mxCell id="xWcjb8qhsKGaQlNw6-6s-82" value="&lt;font style=&quot;font-size: 14px;&quot;&gt;Manage Customers&lt;/font&gt;" style="text;html=1;align=center;verticalAlign=middle;whiteSpace=wrap;rounded=0;" parent="1" vertex="1">
          <mxGeometry x="-150" y="2540" width="130" height="30" as="geometry" />
        </mxCell>
        <mxCell id="xWcjb8qhsKGaQlNw6-6s-83" value="&lt;font style=&quot;font-size: 14px;&quot;&gt;Profile&lt;/font&gt;" style="text;html=1;align=center;verticalAlign=middle;whiteSpace=wrap;rounded=0;" parent="1" vertex="1">
          <mxGeometry x="-180" y="2590" width="110" height="30" as="geometry" />
        </mxCell>
        <mxCell id="xWcjb8qhsKGaQlNw6-6s-84" style="edgeStyle=orthogonalEdgeStyle;rounded=0;orthogonalLoop=1;jettySize=auto;html=1;exitX=0.5;exitY=1;exitDx=0;exitDy=0;" parent="1" source="xWcjb8qhsKGaQlNw6-6s-83" target="xWcjb8qhsKGaQlNw6-6s-83" edge="1">
          <mxGeometry relative="1" as="geometry" />
        </mxCell>
        <mxCell id="xWcjb8qhsKGaQlNw6-6s-85" value="&lt;font style=&quot;font-size: 14px;&quot;&gt;Manage Accounts&lt;/font&gt;" style="text;html=1;align=center;verticalAlign=middle;whiteSpace=wrap;rounded=0;" parent="1" vertex="1">
          <mxGeometry x="180" y="2430" width="140" height="30" as="geometry" />
        </mxCell>
        <mxCell id="xWcjb8qhsKGaQlNw6-6s-86" value="&lt;font style=&quot;font-size: 14px;&quot;&gt;Manage Customers&lt;/font&gt;" style="text;html=1;align=center;verticalAlign=middle;whiteSpace=wrap;rounded=0;" parent="1" vertex="1">
          <mxGeometry x="690" y="2430" width="180" height="30" as="geometry" />
        </mxCell>
        <mxCell id="xWcjb8qhsKGaQlNw6-6s-88" value="&lt;font style=&quot;font-size: 14px;&quot;&gt;View transactions&lt;/font&gt;" style="text;html=1;align=center;verticalAlign=middle;whiteSpace=wrap;rounded=0;" parent="1" vertex="1">
          <mxGeometry x="190" y="2734" width="120" height="30" as="geometry" />
        </mxCell>
        <mxCell id="xWcjb8qhsKGaQlNw6-6s-89" value="" style="endArrow=none;html=1;rounded=0;" parent="1" edge="1">
          <mxGeometry width="50" height="50" relative="1" as="geometry">
            <mxPoint x="-30" y="2380" as="sourcePoint" />
            <mxPoint x="-150" y="2380" as="targetPoint" />
          </mxGeometry>
        </mxCell>
        <mxCell id="khGOywDhVSOmo0irIScb-1" value="&lt;h1 style=&quot;margin-top: 0px;&quot;&gt;A&lt;/h1&gt;" style="text;html=1;whiteSpace=wrap;overflow=hidden;rounded=0;align=center;" vertex="1" parent="1">
          <mxGeometry x="509" y="2550" width="30" height="40" as="geometry" />
        </mxCell>
        <mxCell id="khGOywDhVSOmo0irIScb-2" value="&lt;h1 style=&quot;margin-top: 0px;&quot;&gt;B&lt;/h1&gt;" style="text;html=1;whiteSpace=wrap;overflow=hidden;rounded=0;align=center;" vertex="1" parent="1">
          <mxGeometry x="-10" y="2190" width="30" height="40" as="geometry" />
        </mxCell>
        <mxCell id="khGOywDhVSOmo0irIScb-4" value="&lt;h1 style=&quot;margin-top: 0px;&quot;&gt;D&lt;/h1&gt;" style="text;html=1;whiteSpace=wrap;overflow=hidden;rounded=0;align=center;" vertex="1" parent="1">
          <mxGeometry x="390" y="2350" width="30" height="40" as="geometry" />
        </mxCell>
        <mxCell id="khGOywDhVSOmo0irIScb-5" value="&lt;h1 style=&quot;margin-top: 0px;&quot;&gt;E&lt;/h1&gt;" style="text;html=1;whiteSpace=wrap;overflow=hidden;rounded=0;align=center;" vertex="1" parent="1">
          <mxGeometry x="909" y="2350" width="30" height="40" as="geometry" />
        </mxCell>
        <mxCell id="khGOywDhVSOmo0irIScb-6" value="&lt;h1 style=&quot;margin-top: 0px;&quot;&gt;F&lt;/h1&gt;" style="text;html=1;whiteSpace=wrap;overflow=hidden;rounded=0;align=center;" vertex="1" parent="1">
          <mxGeometry x="399" y="2650" width="30" height="40" as="geometry" />
        </mxCell>
        <mxCell id="khGOywDhVSOmo0irIScb-8" value="&lt;h1 style=&quot;margin-top: 0px;&quot;&gt;H&lt;/h1&gt;" style="text;html=1;whiteSpace=wrap;overflow=hidden;rounded=0;align=center;" vertex="1" parent="1">
          <mxGeometry x="500" y="2175" width="30" height="40" as="geometry" />
        </mxCell>
        <mxCell id="khGOywDhVSOmo0irIScb-13" value="&lt;h1 style=&quot;margin-top: 0px;&quot;&gt;C&lt;/h1&gt;" style="text;html=1;whiteSpace=wrap;overflow=hidden;rounded=0;align=center;" vertex="1" parent="1">
          <mxGeometry x="550" y="2930" width="30" height="40" as="geometry" />
        </mxCell>
      </root>
    </mxGraphModel>
  </diagram>
</mxfile>
